<?xml version="1.0" ?>
<!-- Uploaded to: SVG Repo, www.svgrepo.com, Generator: SVG Repo Mixer Tools -->
<svg width="800px" height="800px" viewBox="0 0 64 64" xmlns="http://www.w3.org/2000/svg">
<defs>
<style>.cls-1{fill:#665e66;}.cls-2{fill:#cb5769;}.cls-3{fill:#eaafa5;}.cls-4{fill:#f1cbc6;}.cls-5{fill:#d57080;}.cls-6{fill:#e7aa90;}.cls-7{fill:#e29375;}.cls-8{fill:#f6e266;}.cls-9{fill:#f4dd45;}</style>
</defs>
<g data-name="Winter Avatar" id="Winter_Avatar-31">
<path class="cls-1" d="M46.29,48.77a5,5,0,0,1,5,5v.87A1.32,1.32,0,0,1,50,56H20.64a1.32,1.32,0,0,1-1.32-1.33V53.8a5,5,0,0,1,5-5Z" id="path37815-7-81-6-6-4-7-7"/>
<path class="cls-2" d="M21.47,31.94l.94,7.23c-.2,1.79-.4,3.47-.56,4.42a1.05,1.05,0,0,0,.35,1c2.71,1.9,9,1.37,9,1.37h8.27s6.28.53,9-1.37a1.08,1.08,0,0,0,.35-1c-.16-1-.37-2.63-.56-4.42l1-7.22L35.76,23.68Z" id="path120224-76"/>
<path class="cls-3" d="M47.43,29.51H23.21c-.65.13-1.74,2.43-1.74,2.43a4.24,4.24,0,0,0,2.62,7.57H46.55a4.24,4.24,0,0,0,2.63-7.57S48.08,29.64,47.43,29.51Z" id="path71411-27-5"/>
<path class="cls-3" d="M31.18,45.94l.63,2.78c.29,1.92,1.56,3.51,3.51,3.51s3.22-1.59,3.51-3.51l.62-2.78L35.79,41.8Z" id="path71393-26-6"/>
<path class="cls-4" d="M47.43,31.12l.17,2.14a12.33,12.33,0,1,1-24.57,0l.1-1.21.08-.93,7.36-7.66,11.94,1.41Z" id="path118751-9"/>
<path class="cls-3" d="M30.57,23.46l-.34.36,8.9,1.05,4.92,6.25.17,2.14A12.32,12.32,0,0,1,33.63,46.48a11.69,11.69,0,0,0,1.69.12A12.32,12.32,0,0,0,47.6,33.26l-.17-2.14-4.92-6.25Z" id="path131872-3"/>
<path class="cls-2" d="M36,26.45c.54.6,5.86,6.33,11.47,4.67a4.41,4.41,0,0,1,1.75.82L49,29.22A13.47,13.47,0,0,0,42.76,19l-3.17.29Z" id="path18028-74"/>
<path class="cls-5" d="M35.32,16.78A13.57,13.57,0,0,0,21.7,29.22l-.23,2.72a4.18,4.18,0,0,1,1.74-.82l.86-.08c.6-.06,1.24-.17,1.8-.26A24.87,24.87,0,0,0,42.76,19,13,13,0,0,0,41,18,13.94,13.94,0,0,0,35.32,16.78Z" id="path71397-29-5"/>
<path class="cls-6" d="M20.18,24.69l-7.31-3.8A.57.57,0,0,1,13,19.82l3.61-.73A1.71,1.71,0,0,0,18,17.43l0-2.3a1.68,1.68,0,0,1,1.66-1.65l2.29,0a1.72,1.72,0,0,0,1.66-1.38l.73-3.62a.58.58,0,0,1,1.08-.15l3.8,7.31L25.35,22.5Z" id="path81785"/>
<path class="cls-7" d="M25,8a.56.56,0,0,0-.57.46l-.56,2.78,3.79,7.28,1.65-2.9-3.8-7.31A.57.57,0,0,0,25,8Z" id="path81787"/>
<path class="cls-8" d="M30.5,15.1a1.76,1.76,0,0,0-1.24.52l-9.08,9.07a1.76,1.76,0,1,0,2.49,2.49l9.08-9.07a1.76,1.76,0,0,0,0-2.49A1.8,1.8,0,0,0,30.5,15.1Z" id="path81789"/>
<path class="cls-9" d="M30.5,15.1a1.76,1.76,0,0,0-1.24.52l-2.19,2.19a1.76,1.76,0,0,1,1.24-.52,1.8,1.8,0,0,1,1.25.52,1.76,1.76,0,0,1,0,2.49l2.19-2.19a1.76,1.76,0,0,0,0-2.49A1.8,1.8,0,0,0,30.5,15.1Z" id="path81791"/>
<path d="M31.24,36.47a1,1,0,0,0,1-1V34.25a1,1,0,0,0-2,0v1.22A1,1,0,0,0,31.24,36.47Z"/>
<path d="M39.4,36.47a1,1,0,0,0,1-1V34.25a1,1,0,0,0-2,0v1.22A1,1,0,0,0,39.4,36.47Z"/>
<path d="M31,40a1,1,0,0,0,.24,1.4,7.87,7.87,0,0,0,8.16,0,1,1,0,0,0-1.15-1.64,5.62,5.62,0,0,1-2.93.78,5.53,5.53,0,0,1-2.93-.78A1,1,0,0,0,31,40Z"/>
<path d="M12.41,21.78l6.4,3.33a2.73,2.73,0,0,0,.67,2.78,2.69,2.69,0,0,0,1.29.72c0,.18-.06.35-.07.53l-.19,2.33a5.19,5.19,0,0,0,.83,8.24,42,42,0,0,1-.58,4.22,1,1,0,0,0,.26,1C22.83,46.7,26.68,47,29.13,47c.49,0,.91,0,1.26,0l.18.78h-5.9a6.47,6.47,0,0,0-6.47,6.47v.32A2.45,2.45,0,0,0,20.64,57H50a2.45,2.45,0,0,0,2.45-2.44v-.32A6.48,6.48,0,0,0,46,47.77H40.07l.17-.78c.36,0,.78,0,1.27,0,2.45,0,6.3-.32,8.11-2.13a1,1,0,0,0,.26-1c-.07-.26-.24-1.19-.59-4.22a5.19,5.19,0,0,0,.85-8.23L50,29.14A14.53,14.53,0,0,0,35.32,15.78,15.12,15.12,0,0,0,33.1,16a2.77,2.77,0,0,0-.64-1.06,2.82,2.82,0,0,0-2.77-.63L26.35,7.85A1.56,1.56,0,0,0,24.73,7,1.54,1.54,0,0,0,23.4,8.27l-.73,3.61a.72.72,0,0,1-.69.58l-2.29,0A2.7,2.7,0,0,0,17,15.12l0,2.3a.72.72,0,0,1-.57.69l-3.62.73a1.57,1.57,0,0,0-.42,2.94Zm9.66,10.95,0,.45a13.11,13.11,0,0,0,.53,5,3.22,3.22,0,0,1-1.72-2.86A3.26,3.26,0,0,1,22.07,32.73Zm13.9-5c1.11,1.2,4.75,4.7,9.28,4.7a7.85,7.85,0,0,0,1.27-.1l.09,1a11.33,11.33,0,1,1-22.58,0L24.14,32A25.29,25.29,0,0,0,36,27.74Zm2.16,19.55-.29,1.28c-.19,1.23-1,2.66-2.52,2.66S33,49.8,32.78,48.5l-.27-1.21a12.89,12.89,0,0,0,5.62,0ZM23.27,40.43l.26,0a13.09,13.09,0,0,0,2,2.82,11.79,11.79,0,0,0,1.83,1.63,10.08,10.08,0,0,1-4.52-1.13C22.92,43.26,23.06,42.27,23.27,40.43ZM50.44,54.24v.32A.45.45,0,0,1,50,55H20.64a.44.44,0,0,1-.44-.44v-.32a4.48,4.48,0,0,1,4.47-4.47H31a4.4,4.4,0,0,0,8.6,0H46A4.48,4.48,0,0,1,50.44,54.24ZM47.81,43.8a10,10,0,0,1-4.53,1.14,13,13,0,0,0,1.84-1.64,13.45,13.45,0,0,0,2-2.82l.25,0C47.58,42.27,47.72,43.26,47.81,43.8Zm.26-5.67a13.31,13.31,0,0,0,.53-5l0-.45a3.24,3.24,0,0,1-.49,5.4ZM48,29.3l.08,1c-.13,0-.26-.09-.4-.12a1,1,0,0,0-.48,0h0c-4.31,1.27-8.31-2.35-9.57-3.65a22.76,22.76,0,0,0,5.29-6.31A12.42,12.42,0,0,1,48,29.3Zm-6.8-10.14c-1.16,2.12-6.26,10-18,11l-.13,0c-.13,0-.26.08-.39.11l.08-1c0-.34.09-.66.14-1a2.51,2.51,0,0,0,.55-.42l9.08-9.07A2.7,2.7,0,0,0,33,18a12.74,12.74,0,0,1,2.31-.23A12.91,12.91,0,0,1,41.15,19.16ZM31,16.33a.75.75,0,0,1,0,1.07L22,26.48a.76.76,0,0,1-1.08-1.08L30,16.33A.78.78,0,0,1,31,16.33Zm-14.2,3.74A2.73,2.73,0,0,0,19,17.44l0-2.29a.68.68,0,0,1,.67-.67l2.3,0a2.73,2.73,0,0,0,2.62-2.18l.49-2.44L28,15.43l-8,8L14.4,20.56Z"/>
</g>
</svg>