<?xml version="1.0" ?>
<!-- Uploaded to: SVG Repo, www.svgrepo.com, Generator: SVG Repo Mixer Tools -->
<svg width="800px" height="800px" viewBox="0 0 64 64" xmlns="http://www.w3.org/2000/svg">
<defs>
<style>.cls-1{fill:#756e78;}.cls-2{fill:#e7ecf1;}.cls-3{fill:#665e66;}.cls-4{fill:#dae4ea;}.cls-5,.cls-7{fill:#eaafa5;}.cls-5{fill-opacity:1;}.cls-6{fill:#f1cbc6;}.cls-8{fill:#544f57;}</style>
</defs>
<g data-name="Winter Avatar" id="Winter_Avatar-13">
<path class="cls-1" d="M17.31,42.7a6.22,6.22,0,0,0-3.63,5.66v6A1.64,1.64,0,0,0,15.32,56H48.68a1.64,1.64,0,0,0,1.64-1.64v-6a6.22,6.22,0,0,0-3.63-5.66" id="path4867-5"/>
<path class="cls-2" d="M32,8a2.7,2.7,0,0,0-2.48,1.63,2.7,2.7,0,0,0-4.79,1.28,2.7,2.7,0,0,0-4.3,2.48,2.71,2.71,0,0,0-2.91.61,2.68,2.68,0,0,0-.6,2.9,2.71,2.71,0,0,0-2.48,4.3A2.7,2.7,0,0,0,13.15,26a2.72,2.72,0,0,0,0,5,2.7,2.7,0,0,0,1.29,4.79A2.7,2.7,0,0,0,16.92,40a2.7,2.7,0,0,0,3.51,3.51A2.7,2.7,0,0,0,24.72,46a2.71,2.71,0,0,0,4.8,1.28,2.7,2.7,0,0,0,5,0A2.7,2.7,0,0,0,39.27,46a2.7,2.7,0,0,0,4.3-2.49A2.7,2.7,0,0,0,47.08,40a2.7,2.7,0,0,0,2.48-4.29A2.7,2.7,0,0,0,50.85,31a2.72,2.72,0,0,0,0-5,2.7,2.7,0,0,0-1.29-4.79,2.71,2.71,0,0,0-2.48-4.3,2.68,2.68,0,0,0-.6-2.9,2.71,2.71,0,0,0-2.91-.61,2.7,2.7,0,0,0-4.29-2.48,2.71,2.71,0,0,0-4.8-1.28A2.7,2.7,0,0,0,32,8Z" id="rect3829-0"/>
<path class="cls-3" d="M43.88,42.7a6.21,6.21,0,0,1,3.62,5.66v6A1.63,1.63,0,0,1,45.87,56h2.81a1.63,1.63,0,0,0,1.63-1.64v-6a6.21,6.21,0,0,0-3.62-5.66Z" id="path46786"/>
<path class="cls-4" d="M36.5,8.61A2.65,2.65,0,0,0,35.23,9a2.73,2.73,0,0,1,1.3,1.93,2.68,2.68,0,0,1,2.68-.3A2.69,2.69,0,0,0,37.3,8.7,2.77,2.77,0,0,0,36.5,8.61Zm4.21,1.77a2.73,2.73,0,0,0-1.2.38,2.68,2.68,0,0,1,1.31,2.63,2.71,2.71,0,0,1,2.91.61,2.68,2.68,0,0,1,.6,2.9,2.71,2.71,0,0,1,2.48,4.3A2.7,2.7,0,0,1,48.1,26a2.71,2.71,0,0,1,0,5,2.7,2.7,0,0,1-1.28,4.79,2.69,2.69,0,0,1,.16,3A2.66,2.66,0,0,1,44.33,40a2.7,2.7,0,0,1-3.51,3.51,2.7,2.7,0,0,1-1.31,2.64,2.7,2.7,0,0,0,4.06-2.64A2.7,2.7,0,0,0,47.08,40a2.7,2.7,0,0,0,2.48-4.29A2.7,2.7,0,0,0,50.85,31a2.72,2.72,0,0,0,0-5,2.7,2.7,0,0,0-1.29-4.79,2.71,2.71,0,0,0-2.48-4.3,2.68,2.68,0,0,0-.6-2.9,2.71,2.71,0,0,0-2.91-.61,2.71,2.71,0,0,0-2.86-3ZM36.53,46A2.7,2.7,0,0,1,35.23,48a2.65,2.65,0,0,0,2.07.29,2.71,2.71,0,0,0,1.91-1.91A2.7,2.7,0,0,1,36.53,46Z" id="path46514"/>
<path class="cls-5" d="M43.39,35.74a4.3,4.3,0,0,0,.89-8.5H19.72a4.3,4.3,0,0,0,.89,8.5Z" id="path57520"/>
<path class="cls-6" d="M32,12.7A11.94,11.94,0,0,1,44,23.64l.48,5.77a12.5,12.5,0,1,1-24.92,0L20,23.64A11.94,11.94,0,0,1,32,12.7Z" id="path57522"/>
<path class="cls-7" d="M39.66,21a12.21,12.21,0,0,1,.53,2.65l.29,3.59.18,2.18A12.5,12.5,0,0,1,30.1,42.79a11.88,11.88,0,0,0,1.9.15A12.5,12.5,0,0,0,44.46,29.41l-.18-2.18Z" id="path57524"/>
<path class="cls-3" d="M39.11,15A11.79,11.79,0,0,1,44,23.64l.3,3.59c-6,1.77-11.2-4.46-11.2-4.46l-.63-3.94Z" id="path57526"/>
<path class="cls-8" d="M32,12.7a13.17,13.17,0,0,0-1.9.15A12,12,0,0,1,40.19,23.64l.29,3.59,0,.16a7.88,7.88,0,0,0,3.78-.16L44,23.64A11.94,11.94,0,0,0,32,12.7Z" id="path57528"/>
<path class="cls-1" d="M39.11,15A12.06,12.06,0,0,0,20,23.64l-.38,4.55A23.41,23.41,0,0,0,39.11,15Z" id="path57530"/>
<path class="cls-3" d="M32,12.7a13.17,13.17,0,0,0-1.9.15A11.89,11.89,0,0,1,35.31,15a12.05,12.05,0,0,1,2.48,2.41A17.85,17.85,0,0,0,39.11,15,12,12,0,0,0,32,12.7Z" id="path57532"/>
<path d="M28.86,31.66V30.42a1,1,0,0,0-2,0v1.24a1,1,0,1,0,2,0Z"/>
<path d="M36.14,29.42a1,1,0,0,0-1,1v1.24a1,1,0,1,0,2,0V30.42A1,1,0,0,0,36.14,29.42Z"/>
<path d="M35,36a5.74,5.74,0,0,1-3,.79A5.87,5.87,0,0,1,29,36a1,1,0,0,0-1.39.24,1,1,0,0,0,.24,1.4,8,8,0,0,0,8.26,0,1,1,0,0,0,.24-1.4A1,1,0,0,0,35,36Z"/>
<path d="M45.22,26.48,45,23.55a13,13,0,0,0-26,0l-.24,2.93a5.28,5.28,0,0,0,1.28,10.21,13,13,0,0,0,2,2.89A13.46,13.46,0,0,0,44,36.69a5.28,5.28,0,0,0,1.27-10.21ZM43,23.72l.22,2.72c-3.82.63-7.27-2.22-8.68-3.6a24.71,24.71,0,0,0,4.93-6.29A10.82,10.82,0,0,1,43,23.72Zm-11-10a11.06,11.06,0,0,1,5.83,1.63A22.51,22.51,0,0,1,20.74,27L21,23.72A10.92,10.92,0,0,1,32,13.7ZM17.31,31.45a3.33,3.33,0,0,1,1.27-2.6l0,.48a13.52,13.52,0,0,0,.56,5A3.28,3.28,0,0,1,17.31,31.45Zm23.15,6.78a11.5,11.5,0,0,1-19.92-8.74l0-.41A24.16,24.16,0,0,0,33,24.14c1.41,1.43,4.87,4.41,9.08,4.41a9.88,9.88,0,0,0,1.31-.1l.08,1A11.39,11.39,0,0,1,40.46,38.23Zm4.44-3.87a13.52,13.52,0,0,0,.56-5l0-.48a3.35,3.35,0,0,1,1.27,2.6A3.28,3.28,0,0,1,44.9,34.36Z"/>
<path d="M52.33,25.8A3.71,3.71,0,0,0,51,20.63,3.71,3.71,0,0,0,48.27,16a3.71,3.71,0,0,0-3.79-3.79,3.7,3.7,0,0,0-4.63-2.67,3.74,3.74,0,0,0-2.29-1.8,3.7,3.7,0,0,0-2.88.41A3.74,3.74,0,0,0,32,7a3.7,3.7,0,0,0-2.68,1.14,3.7,3.7,0,0,0-2.88-.41,3.74,3.74,0,0,0-2.29,1.8,3.7,3.7,0,0,0-4.63,2.68,3.66,3.66,0,0,0-2.71,1.08A3.74,3.74,0,0,0,15.73,16a3.76,3.76,0,0,0-2.33,1.75,3.71,3.71,0,0,0-.35,2.89,3.71,3.71,0,0,0-1.38,5.17,3.66,3.66,0,0,0-1.14,2.67,3.7,3.7,0,0,0,1.14,2.68,3.71,3.71,0,0,0,1.38,5.17A3.71,3.71,0,0,0,15.73,41,3.65,3.65,0,0,0,16,42.31a7.22,7.22,0,0,0-3.27,6v6A2.64,2.64,0,0,0,15.32,57H48.68a2.64,2.64,0,0,0,2.64-2.64v-6a7.24,7.24,0,0,0-3.28-6A3.65,3.65,0,0,0,48.27,41,3.71,3.71,0,0,0,51,36.32a3.71,3.71,0,0,0,1.38-5.17,3.71,3.71,0,0,0,0-5.35ZM14.69,54.36v-6a5.23,5.23,0,0,1,2.46-4.43,4,4,0,0,0,2.37.82,3.7,3.7,0,0,0,4.63,2.67,3.7,3.7,0,0,0,5.17,1.39,3.76,3.76,0,0,0,1.68,1V55H15.32A.64.64,0,0,1,14.69,54.36Zm34.63-6v6a.64.64,0,0,1-.64.64H33V49.79a3.67,3.67,0,0,0,1.68-1,3.7,3.7,0,0,0,2.88.41,3.74,3.74,0,0,0,2.29-1.8,3.7,3.7,0,0,0,4.63-2.67,3.69,3.69,0,0,0,2.37-.82A5.21,5.21,0,0,1,49.32,48.36ZM50.45,30a1,1,0,0,0-.22,1.7,1.71,1.71,0,0,1-.81,3,1,1,0,0,0-.78.61,1,1,0,0,0,.12,1,1.68,1.68,0,0,1,.11,1.86,1.71,1.71,0,0,1-1.67.84,1,1,0,0,0-.91.39,1,1,0,0,0-.14,1,1.71,1.71,0,0,1-2.21,2.22,1,1,0,0,0-1.36,1,1.7,1.7,0,0,1-2.71,1.56,1,1,0,0,0-1-.12,1,1,0,0,0-.61.78A1.69,1.69,0,0,1,37,47.29a1.72,1.72,0,0,1-1.78-.59,1,1,0,0,0-.91-.37,1,1,0,0,0-.79.59,1.7,1.7,0,0,1-3.12,0,1,1,0,0,0-.79-.59h-.13a1,1,0,0,0-.79.38,1.7,1.7,0,0,1-3-.81,1,1,0,0,0-1.58-.65,1.71,1.71,0,0,1-2.71-1.57,1,1,0,0,0-1.36-1,1.71,1.71,0,0,1-2.21-2.22,1,1,0,0,0-.14-1,1,1,0,0,0-.91-.39,1.7,1.7,0,0,1-1.56-2.71,1,1,0,0,0,.12-1,1,1,0,0,0-.78-.61,1.71,1.71,0,0,1-.81-3,1,1,0,0,0-.22-1.7,1.71,1.71,0,0,1,0-3.13,1,1,0,0,0,.23-1.7,1.7,1.7,0,0,1,.8-3,1,1,0,0,0,.78-.61,1,1,0,0,0-.12-1,1.7,1.7,0,0,1,1.56-2.7,1,1,0,0,0,.91-.39,1,1,0,0,0,.14-1,1.71,1.71,0,0,1,2.21-2.22,1,1,0,0,0,1.36-1,1.69,1.69,0,0,1,.84-1.67,1.72,1.72,0,0,1,1.87.1,1,1,0,0,0,1,.13,1,1,0,0,0,.61-.78A1.69,1.69,0,0,1,27,9.66a1.73,1.73,0,0,1,1.78.59,1,1,0,0,0,1.7-.23,1.7,1.7,0,0,1,3.12,0,1,1,0,0,0,.79.6,1,1,0,0,0,.91-.37,1.71,1.71,0,0,1,3,.81,1,1,0,0,0,1.58.65,1.72,1.72,0,0,1,1.87-.1,1.69,1.69,0,0,1,.84,1.67,1,1,0,0,0,1.36,1,1.7,1.7,0,0,1,2.21,2.21A1,1,0,0,0,47.2,17.9a1.71,1.71,0,0,1,1.67.84,1.68,1.68,0,0,1-.11,1.86,1,1,0,0,0,.66,1.59,1.71,1.71,0,0,1,.81,3,1,1,0,0,0,.22,1.7,1.71,1.71,0,0,1,0,3.13Z"/>
</g>
</svg>