<?xml version="1.0" ?>
<!-- Uploaded to: SVG Repo, www.svgrepo.com, Generator: SVG Repo Mixer Tools -->
<svg width="800px" height="800px" viewBox="0 0 64 64" xmlns="http://www.w3.org/2000/svg">
<defs>
<style>.cls-1{fill:#e7ecf1;}.cls-2{fill:#dae4ea;}.cls-3{fill:#f6f9f9;}.cls-4{fill:#e7aa90;}.cls-5{fill:#756e78;}.cls-5,.cls-6,.cls-7,.cls-8{fill-opacity:0.99;}.cls-6{fill:#d57080;}.cls-7{fill:#665e66;}.cls-8{fill:#cb5769;}</style>
</defs>
<g data-name="Winter Avatar" id="Winter_Avatar-24">
<path class="cls-1" d="M26.76,40.19A16.64,16.64,0,0,0,15.59,53.28,2.4,2.4,0,0,0,18.08,56H45.92a2.39,2.39,0,0,0,2.48-2.69A16.61,16.61,0,0,0,37.24,40.19Z" id="path13088-1-8"/>
<path class="cls-2" d="M33.94,40.19A16.61,16.61,0,0,1,45.1,53.27,2.4,2.4,0,0,1,42.62,56h3.3a2.4,2.4,0,0,0,2.49-2.7A16.64,16.64,0,0,0,37.24,40.19Z" id="path175371-8"/>
<path class="cls-3" d="M32,19.56a11,11,0,1,0,11,11A11,11,0,0,0,32,19.56Z" id="circle13086-4-9"/>
<path class="cls-4" d="M33.68,30.16c0,1-.83,2.85-1.86,2.85S30,31.18,30,30.16a1.86,1.86,0,1,1,3.71,0Z" id="path13094-9-7"/>
<path class="cls-1" d="M32,19.56c-.32,0-.63,0-.94,0a11,11,0,0,1,0,21.92c.31,0,.62,0,.94,0a11,11,0,0,0,0-22Z" id="path175373-7"/>
<path class="cls-5" d="M23.83,8A1.74,1.74,0,0,0,22.15,10l.38,7,9.59,1.82,9.35-1.82.38-7A1.7,1.7,0,0,0,40.17,8Z" id="path178524"/>
<path class="cls-6" d="M41.47,16.93H22.53l.23,4.3,9,1.79,9.5-1.79Z" id="rect13409-6"/>
<path class="cls-5" d="M22.76,21.23H41.24a1.69,1.69,0,1,1,0,3.37H22.76a1.69,1.69,0,1,1,0-3.37Z" id="rect13142-8"/>
<path class="cls-7" d="M38.05,21.23a1.69,1.69,0,1,1,0,3.37h3.19a1.69,1.69,0,1,0,0-3.37Z" id="path178218"/>
<path class="cls-7" d="M41.47,16.93l.38-7A1.7,1.7,0,0,0,40.17,8H37A1.7,1.7,0,0,1,38.66,10l-.37,7Z" id="path178796"/>
<path class="cls-8" d="M41.24,21.23l.23-4.3H38.29l-.24,4.3Z" id="path178798"/>
<path d="M49.39,53.11A17.54,17.54,0,0,0,39.39,40a11.88,11.88,0,0,0,3.3-14.82,2.68,2.68,0,0,0-.4-4.73l.55-10.36A2.67,2.67,0,0,0,42.19,8a2.7,2.7,0,0,0-2-.92H23.83a2.61,2.61,0,0,0-1.91.83A2.91,2.91,0,0,0,21.15,10l.56,10.44a2.69,2.69,0,0,0-.4,4.73A11.88,11.88,0,0,0,24.61,40a17.54,17.54,0,0,0-10,13.12,3.14,3.14,0,0,0,.73,2.61A3.58,3.58,0,0,0,18.08,57H45.92a3.58,3.58,0,0,0,2.74-1.25A3.14,3.14,0,0,0,49.39,53.11ZM22.76,23.6a.69.69,0,0,1,0-1.37H41.24a.69.69,0,1,1,0,1.37Zm.94-3.37-.12-2.3H40.42l-.12,2.3Zm-.33-11a.63.63,0,0,1,.46-.2H40.17a.69.69,0,0,1,.52.24.73.73,0,0,1,.16.63l-.32,6H23.47l-.32-6A.87.87,0,0,1,23.37,9.23ZM22,30.56a9.93,9.93,0,0,1,1.35-5h17.3a10,10,0,0,1-8.65,15A10,10,0,0,1,22,30.56ZM47.14,54.43a1.64,1.64,0,0,1-1.22.54H18.08a1.64,1.64,0,0,1-1.22-.54,1.21,1.21,0,0,1-.28-1A15.57,15.57,0,0,1,26.68,41.3a11.86,11.86,0,0,0,10.64,0,15.57,15.57,0,0,1,10.1,12.14A1.21,1.21,0,0,1,47.14,54.43Z"/>
<circle cx="32" cy="51.62" r="1.25"/>
<path d="M32,36.91a8.07,8.07,0,0,0,4.35-1.22,1,1,0,0,0-1.16-1.64,6,6,0,0,1-3.19.86,6.18,6.18,0,0,1-3.2-.86,1,1,0,0,0-1.15,1.64A8.07,8.07,0,0,0,32,36.91Z"/>
<path d="M31.82,34c1.85,0,2.86-2.55,2.86-3.85a2.86,2.86,0,1,0-5.71,0C29,31.46,30,34,31.82,34Zm0-4.71a.87.87,0,0,1,.86.86A2.91,2.91,0,0,1,31.85,32,2.69,2.69,0,0,1,31,30.16.86.86,0,0,1,31.82,29.3Z"/>
<circle cx="32" cy="45.93" r="1.25"/>
</g>
</svg>