<?xml version="1.0" ?>
<!-- Uploaded to: SVG Repo, www.svgrepo.com, Generator: SVG Repo Mixer Tools -->
<svg width="800px" height="800px" viewBox="0 0 64 64" xmlns="http://www.w3.org/2000/svg">
<defs>
<style>.cls-1{fill:#756e78;}.cls-2{fill:#665e66;}.cls-3{fill:#eaafa5;}.cls-4{fill:#f1cbc6;}.cls-5{fill:#544f57;}.cls-6{fill:#f6f9f9;}.cls-7{fill:#e7ecf1;}.cls-8{fill:#d57080;}.cls-9{fill:#cb5769;}</style>
</defs>
<g data-name="Winter Avatar" id="Winter_Avatar-35">
<path class="cls-1" d="M42.43,48.3c0-2.78-3.16-3.95-3.16-3.95H24.72s-3.15,1.17-3.15,3.95l-.07,4L23.87,54l8.77-.9,8.15.68Z" id="path37315-2-9-3-0-0"/>
<path class="cls-2" d="M38.38,51.73a4,4,0,0,0,.92-3.43h3.13a5.35,5.35,0,0,1,5.36,5.36v.93A1.41,1.41,0,0,1,46.37,56H17.62a1.41,1.41,0,0,1-1.41-1.41v-.93a5.35,5.35,0,0,1,5.36-5.36h3.12a4,4,0,0,0,.92,3.43S26.53,53,32,53,38.38,51.73,38.38,51.73Z" id="path37815-7-81-6-6-4"/>
<path class="cls-3" d="M28,46.15l.61,2.72c.29,1.89,1.54,3.44,3.44,3.44s3.15-1.55,3.44-3.44l.61-2.72L31.34,41Z" id="path22987-26-8-2-6"/>
<path class="cls-3" d="M43,39.85a4.14,4.14,0,0,0,.86-8.2H20.15a4.14,4.14,0,0,0,.86,8.2Z" id="path114197-5-54-8"/>
<path class="cls-4" d="M20.08,32.56,20,33.75a12.06,12.06,0,1,0,24,0l-.17-2.11-7.1-9.58-14,4.63Z" id="path99362-0-74-9"/>
<path class="cls-3" d="M39.39,25.62a12,12,0,0,1,.51,2.55l.28,3.47.18,2.11A12.08,12.08,0,0,1,30.17,46.66,12.32,12.32,0,0,0,32,46.8a12.06,12.06,0,0,0,12-13l-.17-2.11Z" id="path101009-9-4-2"/>
<path class="cls-2" d="M33,27.34s5,6,10.81,4.3l-.29-3.47a11.4,11.4,0,0,0-4.7-8.33l-5.63,1.08Z" id="path113433-6-30-6"/>
<path class="cls-5" d="M32,17.62a12.32,12.32,0,0,0-1.83.15,11.57,11.57,0,0,1,5,2.07,11.43,11.43,0,0,1,4.7,8.33l.28,3.47,0,.15a7.59,7.59,0,0,0,3.65-.15l-.29-3.47A11.52,11.52,0,0,0,32,17.62Z" id="path101011-3-7-6"/>
<path class="cls-1" d="M32,17.62A11.52,11.52,0,0,0,20.44,28.17l-.36,4.39A22.56,22.56,0,0,0,38.86,19.84,11.59,11.59,0,0,0,32,17.62Z" id="path22989-64-8-8-4"/>
<path class="cls-2" d="M32,17.62a11.11,11.11,0,0,0-1.83.15,11.55,11.55,0,0,1,7.41,4.39,15.72,15.72,0,0,0,1.28-2.32A11.59,11.59,0,0,0,32,17.62Z" id="path186167-68-9"/>
<path class="cls-6" d="M32.18,15.56l-11-5.38-1.48.92L19.6,23.36Z" id="path205766-62"/>
<path class="cls-7" d="M21.14,10.18l-1,.64,8.26,7.11,3.82-2.38Z" id="path12282"/>
<path class="cls-8" d="M33.35,15.28a25.16,25.16,0,0,0-14.51,9,2.5,2.5,0,1,0,4.08,2.88,19.72,19.72,0,0,1,11.45-7,2.5,2.5,0,1,0-1-4.89Z" id="path192449-53"/>
<path class="cls-8" d="M21.28,9.55A1.56,1.56,0,1,1,19.72,8,1.56,1.56,0,0,1,21.28,9.55Z" id="path205066-9"/>
<path class="cls-9" d="M34,15.23a2,2,0,0,0-.65,0c-.63.13-1.24.28-1.82.45a3.56,3.56,0,0,1,2.14,2.55,3.52,3.52,0,0,1-.2,2.1c.3-.07.6-.15.9-.21A2.5,2.5,0,0,0,34,15.23Z" id="path12480"/>
<path d="M32,42.84a7.39,7.39,0,0,0,4-1.13,1,1,0,0,0,.24-1.39,1,1,0,0,0-1.4-.24,5.71,5.71,0,0,1-5.71,0,1,1,0,0,0-1.39.25A1,1,0,0,0,28,41.71,7.39,7.39,0,0,0,32,42.84Z"/>
<path d="M20.69,47.39a6.34,6.34,0,0,0-5.48,6.27v.93A2.41,2.41,0,0,0,17.62,57H46.38a2.41,2.41,0,0,0,2.41-2.41v-.93a6.34,6.34,0,0,0-5.48-6.27A5.29,5.29,0,0,0,41,44.16c.21-.19.42-.38.61-.59a13.12,13.12,0,0,0,1.93-2.77,5.13,5.13,0,0,0,1.26-9.9l-.24-2.84a12.37,12.37,0,0,0-7.22-10.28,3.42,3.42,0,0,0-.06-.78,3.51,3.51,0,0,0-4.15-2.7h0l-.84.2-10-4.88s0,0,0-.07a2.56,2.56,0,1,0-3.62,2.32L18.61,23c-.35.42-.55.7-.59.75a3.5,3.5,0,0,0,.85,4.87,3.23,3.23,0,0,0,.49.25l-.17,2a5.12,5.12,0,0,0,1.26,9.89,12.93,12.93,0,0,0,1.93,2.78c.19.21.4.4.61.59A5.29,5.29,0,0,0,20.69,47.39ZM46.14,35.71a3.11,3.11,0,0,1-1.63,2.73,12.93,12.93,0,0,0,.52-4.8l0-.29A3.13,3.13,0,0,1,46.14,35.71Zm-3.56-7.49.21,2.6c-3.64.59-6.93-2.11-8.3-3.45a23.69,23.69,0,0,0,4.71-6A10.39,10.39,0,0,1,42.58,28.22Zm-5.72,3.39a3.56,3.56,0,0,0-4.14,2.56H31.28a3.6,3.6,0,0,0-3.2-2.6A23.29,23.29,0,0,0,33,28.68,16.83,16.83,0,0,0,36.86,31.61Zm1,3.56h0a1.64,1.64,0,1,1-1.64-1.63A1.63,1.63,0,0,1,37.83,35.17Zm-16.49-6a3.48,3.48,0,0,0,2.4-1.43,18.81,18.81,0,0,1,10.84-6.61,3.46,3.46,0,0,0,2.16-1.45c.29.14.57.29.85.45A21.46,21.46,0,0,1,21.16,31.39Zm6.47,4.35a1.64,1.64,0,0,1,0,3.27,1.64,1.64,0,1,1,0-3.27Zm7.52-16.12a1.52,1.52,0,0,1-.21,1.12,1.48,1.48,0,0,1-.95.65,20.48,20.48,0,0,0-12.06,7.42A1.54,1.54,0,0,1,20,27a1.51,1.51,0,0,1-.37-2.09,24.37,24.37,0,0,1,13.9-8.63A1.52,1.52,0,0,1,35.33,17.42ZM20.61,20.87l.05-8.94a2.66,2.66,0,0,0,.77-.49l8.06,3.92A26.62,26.62,0,0,0,20.61,20.87ZM19.72,9a.56.56,0,1,1-.55.55A.56.56,0,0,1,19.72,9ZM17.86,35.71A3.13,3.13,0,0,1,19,33.35l0,.29a12.93,12.93,0,0,0,.52,4.8A3.11,3.11,0,0,1,17.86,35.71ZM21,33.8l0-.37a25.29,25.29,0,0,0,4.24-.82,3.63,3.63,0,1,0,6.05,3.56h1.44a3.63,3.63,0,0,0,7.11-1h0a3.63,3.63,0,0,0-1.46-2.89,9.56,9.56,0,0,0,3.36.64A8.69,8.69,0,0,0,43,32.83l.08,1A11.08,11.08,0,1,1,21,33.8ZM34.73,47.5l-.28,1.22c-.18,1.19-.93,2.59-2.45,2.59s-2.27-1.4-2.47-2.66l-.25-1.15a12.95,12.95,0,0,0,5.45,0Zm-7.66-.69.5,2.21c.39,2.57,2.17,4.29,4.43,4.29a4.58,4.58,0,0,0,4.42-4.22l.51-2.28a13.33,13.33,0,0,0,2.44-1.31,4.07,4.07,0,0,1,1.83,1.8H39.3a1,1,0,0,0-1,1.21A3,3,0,0,1,37.68,51a1,1,0,0,0,0,1.42,1,1,0,0,0,1.41,0,4.57,4.57,0,0,0,1.28-3.14h2.06a4.36,4.36,0,0,1,4.36,4.36v.93a.41.41,0,0,1-.41.41H17.62a.41.41,0,0,1-.41-.41v-.93a4.36,4.36,0,0,1,4.36-4.36h2.06a4.57,4.57,0,0,0,1.28,3.14,1,1,0,0,0,1.41,0,1,1,0,0,0,0-1.42,3,3,0,0,1-.65-2.51,1,1,0,0,0-.19-.84,1,1,0,0,0-.78-.37H22.81a4.16,4.16,0,0,1,1.82-1.8A13.66,13.66,0,0,0,27.07,46.81Z"/>
</g>
</svg>